<?xml version="1.0" encoding="UTF-8"?>
<svg width="1024" height="1024" viewBox="0 0 1024 1024" xmlns="http://www.w3.org/2000/svg">
  <defs>
    <linearGradient id="bg" x1="0%" y1="0%" x2="100%" y2="100%">
      <stop offset="0%" stop-color="#FF9900"/>
      <stop offset="100%" stop-color="#E47911"/>
    </linearGradient>
    <linearGradient id="pencil" x1="0%" y1="0%" x2="100%" y2="100%">
      <stop offset="0%" stop-color="#FFD814"/>
      <stop offset="100%" stop-color="#F7CA00"/>
    </linearGradient>
    <filter id="shadow" x="-20%" y="-20%" width="140%" height="140%">
      <feDropShadow dx="0" dy="16" stdDeviation="16" flood-opacity="0.25"/>
    </filter>
  </defs>

  <!-- Orange rounded background -->
  <rect x="32" y="32" width="960" height="960" rx="192" fill="url(#bg)"/>

  <!-- Document body with folded top-right corner -->
  <g filter="url(#shadow)">
    <path d="M 224 224 L 640 224 L 800 384 L 800 832 Q 800 864 768 864 L 256 864 Q 224 864 224 832 Z" fill="#FFFFFF"/>
    <path d="M 640 224 L 800 384 L 640 384 Z" fill="#EAEDED"/>
    <path d="M 640 224 L 800 384 L 640 384 Z" fill="none" stroke="#D5D9D9" stroke-width="6"/>
  </g>

  <!-- PDF text -->
  <text x="490" y="640" text-anchor="middle"
        font-family="Inter, Helvetica, Arial, sans-serif"
        font-size="170" font-weight="900" fill="#131A22" letter-spacing="6">PDF</text>

  <!-- Pencil overlapping bottom-right corner -->
  <g transform="translate(700, 700) rotate(-45)">
    <rect x="0" y="0" width="260" height="74" rx="12" fill="url(#pencil)" stroke="#A88734" stroke-width="5"/>
    <rect x="0" y="0" width="36" height="74" fill="#E47911"/>
    <polygon points="260,0 308,37 260,74" fill="#0F1111"/>
  </g>
</svg>